REM DIRINDEX 1\3,1\4,1\5,1\6,1\2\7,1\2\8,1\2\9,1\10
REM DIRNAME folder01,folder02,folder03,folder04,folder05,folder06,folder07,folder08,folder09,folder10
TITLE ""
FILE "2-20 Level 4-ŠX.mp3" MP3
  TRACK 01 AUDIO
    TITLE "0:"
    INDEX 01 00:00:00
  TRACK 02 AUDIO
    TITLE "10:cjc056_2413"
    INDEX 01 00:00:03
  TRACK 03 AUDIO
    TITLE "0:"
    INDEX 01 00:03:08
  TRACK 04 AUDIO
    TITLE "5:cjc056_2414"
    INDEX 01 00:03:57
  TRACK 05 AUDIO
    TITLE "0:"
    INDEX 01 00:04:70
  TRACK 06 AUDIO
    TITLE "5:cjc056_2415"
    INDEX 01 00:06:12
  TRACK 07 AUDIO
    TITLE "0:"
    INDEX 01 00:07:39
  TRACK 08 AUDIO
    TITLE "5:cjc056_2416"
    INDEX 01 00:07:51
  TRACK 09 AUDIO
    TITLE "0:"
    INDEX 01 00:08:66
  TRACK 10 AUDIO
    TITLE "5:cjc056_2417"
    INDEX 01 00:09:40
  TRACK 11 AUDIO
    TITLE "0:"
    INDEX 01 00:10:65
  TRACK 12 AUDIO
    TITLE "5:cjc056_2418"
    INDEX 01 00:11:03
  TRACK 13 AUDIO
    TITLE "0:"
    INDEX 01 00:12:20
  TRACK 14 AUDIO
    TITLE "5:cjc056_2419"
    INDEX 01 00:12:69
  TRACK 15 AUDIO
    TITLE "0:"
    INDEX 01 00:14:09
  TRACK 16 AUDIO
    TITLE "5:cjc056_2420"
    INDEX 01 00:14:23
  TRACK 17 AUDIO
    TITLE "0:"
    INDEX 01 00:15:23
  TRACK 18 AUDIO
    TITLE "5:cjc056_2421"
    INDEX 01 00:15:72
  TRACK 19 AUDIO
    TITLE "0:"
    INDEX 01 00:17:06
  TRACK 20 AUDIO
    TITLE "5:cjc056_2422"
    INDEX 01 00:17:21
  TRACK 21 AUDIO
    TITLE "0:"
    INDEX 01 00:18:33
  TRACK 22 AUDIO
    TITLE "5:cjc056_2423"
    INDEX 01 00:19:07
  TRACK 23 AUDIO
    TITLE "0:"
    INDEX 01 00:20:10
  TRACK 24 AUDIO
    TITLE "5:cjc056_2424"
    INDEX 01 00:20:24
  TRACK 25 AUDIO
    TITLE "0:"
    INDEX 01 00:21:19
  TRACK 26 AUDIO
    TITLE "5:cjc056_2425"
    INDEX 01 00:21:66
  TRACK 27 AUDIO
    TITLE "0:"
    INDEX 01 00:22:72
  TRACK 28 AUDIO
    TITLE "5:cjc056_2426"
    INDEX 01 00:23:08
  TRACK 29 AUDIO
    TITLE "0:"
    INDEX 01 00:24:33
  TRACK 30 AUDIO
    TITLE "5:cjc056_2427"
    INDEX 01 00:25:05
  TRACK 31 AUDIO
    TITLE "0:"
    INDEX 01 00:26:09
  TRACK 32 AUDIO
    TITLE "5:cjc056_2428"
    INDEX 01 00:26:20
  TRACK 33 AUDIO
    TITLE "0:"
    INDEX 01 00:27:20
  TRACK 34 AUDIO
    TITLE "5:cjc056_2429"
    INDEX 01 00:27:69
  TRACK 35 AUDIO
    TITLE "0:"
    INDEX 01 00:29:07
  TRACK 36 AUDIO
    TITLE "5:cjc056_2430"
    INDEX 01 00:29:21
  TRACK 37 AUDIO
    TITLE "0:"
    INDEX 01 00:30:12
  TRACK 38 AUDIO
    TITLE "5:cjc056_2431"
    INDEX 01 00:30:61
  TRACK 39 AUDIO
    TITLE "0:"
    INDEX 01 00:32:00
  TRACK 40 AUDIO
    TITLE "5:cjc056_2432"
    INDEX 01 00:32:13
  TRACK 41 AUDIO
    TITLE "0:"
    INDEX 01 00:33:32
  TRACK 42 AUDIO
    TITLE "5:cjc056_2433"
    INDEX 01 00:34:04
  TRACK 43 AUDIO
    TITLE "0:"
    INDEX 01 00:35:15
  TRACK 44 AUDIO
    TITLE "5:cjc056_2434"
    INDEX 01 00:35:39
  TRACK 45 AUDIO
    TITLE "0:"
    INDEX 01 00:36:40
  TRACK 46 AUDIO
    TITLE "5:cjc056_2435"
    INDEX 01 00:37:14
  TRACK 47 AUDIO
    TITLE "0:"
    INDEX 01 00:38:47
  TRACK 48 AUDIO
    TITLE "5:cjc056_2436"
    INDEX 01 00:38:61
  TRACK 49 AUDIO
    TITLE "0:"
    INDEX 01 00:40:23
  TRACK 50 AUDIO
    TITLE "5:cjc056_2437"
    INDEX 01 00:40:72
  TRACK 51 AUDIO
    TITLE "0:"
    INDEX 01 00:41:73
  TRACK 52 AUDIO
    TITLE "5:cjc056_2438"
    INDEX 01 00:42:10
  TRACK 53 AUDIO
    TITLE "0:"
    INDEX 01 00:43:35
  TRACK 54 AUDIO
    TITLE "5:cjc056_2439"
    INDEX 01 00:44:09
  TRACK 55 AUDIO
    TITLE "0:"
    INDEX 01 00:45:59
  TRACK 56 AUDIO
    TITLE "5:cjc056_2440"
    INDEX 01 00:45:73
  TRACK 57 AUDIO
    TITLE "0:"
    INDEX 01 00:47:17
  TRACK 58 AUDIO
    TITLE "5:cjc056_2441"
    INDEX 01 00:47:64
  TRACK 59 AUDIO
    TITLE "0:"
    INDEX 01 00:49:16
  TRACK 60 AUDIO
    TITLE "5:cjc056_2442"
    INDEX 01 00:49:31
  TRACK 61 AUDIO
    TITLE "0:"
    INDEX 01 00:50:52
  TRACK 62 AUDIO
    TITLE "5:cjc056_2443"
    INDEX 01 00:51:26
  TRACK 63 AUDIO
    TITLE "0:"
    INDEX 01 00:52:36
  TRACK 64 AUDIO
    TITLE "5:cjc056_2444"
    INDEX 01 00:52:49
  TRACK 65 AUDIO
    TITLE "0:"
    INDEX 01 00:53:57
  TRACK 66 AUDIO
    TITLE "5:cjc056_2445"
    INDEX 01 00:54:29
  TRACK 67 AUDIO
    TITLE "0:"
    INDEX 01 00:55:50
  TRACK 68 AUDIO
    TITLE "5:cjc056_2446"
    INDEX 01 00:55:63
  TRACK 69 AUDIO
    TITLE "0:"
    INDEX 01 00:56:57
  TRACK 70 AUDIO
    TITLE "5:cjc056_2447"
    INDEX 01 00:57:31
  TRACK 71 AUDIO
    TITLE "0:"
    INDEX 01 00:58:50
  TRACK 72 AUDIO
    TITLE "5:cjc056_2448"
    INDEX 01 00:58:66
  TRACK 73 AUDIO
    TITLE "0:"
    INDEX 01 01:00:27
  TRACK 74 AUDIO
    TITLE "5:cjc056_2449"
    INDEX 01 01:00:74
  TRACK 75 AUDIO
    TITLE "0:"
    INDEX 01 01:02:16
  TRACK 76 AUDIO
    TITLE "5:cjc056_2450"
    INDEX 01 01:02:30
  TRACK 77 AUDIO
    TITLE "0:"
    INDEX 01 01:03:57
  TRACK 78 AUDIO
    TITLE "5:cjc056_2451"
    INDEX 01 01:04:33
  TRACK 79 AUDIO
    TITLE "0:"
    INDEX 01 01:05:36
  TRACK 80 AUDIO
    TITLE "5:cjc056_2452"
    INDEX 01 01:05:52
  TRACK 81 AUDIO
    TITLE "0:"
    INDEX 01 01:06:69
  TRACK 82 AUDIO
    TITLE "5:cjc056_2453"
    INDEX 01 01:07:43
  TRACK 83 AUDIO
    TITLE "0:"
    INDEX 01 01:08:46
  TRACK 84 AUDIO
    TITLE "5:cjc056_2454"
    INDEX 01 01:08:60
  TRACK 85 AUDIO
    TITLE "0:"
    INDEX 01 01:09:56
  TRACK 86 AUDIO
    TITLE "5:cjc056_2455"
    INDEX 01 01:10:30
  TRACK 87 AUDIO
    TITLE "0:"
    INDEX 01 01:11:66
  TRACK 88 AUDIO
    TITLE "5:cjc056_2456"
    INDEX 01 01:12:05
  TRACK 89 AUDIO
    TITLE "0:"
    INDEX 01 01:13:28
  TRACK 90 AUDIO
    TITLE "5:cjc056_2457"
    INDEX 01 01:14:02
  TRACK 91 AUDIO
    TITLE "0:"
    INDEX 01 01:15:13
  TRACK 92 AUDIO
    TITLE "5:cjc056_2458"
    INDEX 01 01:15:25
  TRACK 93 AUDIO
    TITLE "0:"
    INDEX 01 01:16:46
